<svg width="20" height="20" viewBox="0 0 48 48" xmlns="http://www.w3.org/2000/svg">
  <path fill="#EA4335" d="M24 9.5c3.54 0 6.69 1.22 9.18 3.22l6.84-6.84C35.87 2.01 30.28 0 24 0 14.62 0 6.51 5.38 2.56 13.22l7.98 6.19C12.46 13.09 17.77 9.5 24 9.5z"/>
  <path fill="#4285F4" d="M46.1 24.5c0-1.64-.15-3.22-.43-4.74H24v9.02h12.43c-.54 2.92-2.18 5.4-4.6 7.07l7.13 5.53c4.17-3.84 6.54-9.5 6.54-16.88z"/>
  <path fill="#FBBC05" d="M10.54 28.41c-.48-1.44-.76-2.98-.76-4.57s.27-3.13.76-4.57l-7.98-6.19C.92 16.11 0 19.97 0 23.84s.92 7.73 2.56 10.76l7.98-6.19z"/>
  <path fill="#34A853" d="M24 48c6.28 0 11.56-2.08 15.41-5.65l-7.13-5.53c-1.98 1.33-4.51 2.11-8.28 2.11-6.23 0-11.54-3.59-13.46-8.91l-7.98 6.19C6.51 42.62 14.62 48 24 48z"/>
</svg>
